<?xml version="1.0" encoding="UTF-8"?>
<svg id="Layer_1" data-name="Layer 1" xmlns="http://www.w3.org/2000/svg" viewBox="0 0 586.35 244.35">
  <defs>
    <style>
      .cls-1 {
        fill: #fff;
      }

      .cls-1, .cls-2 {
        stroke-width: 0px;
      }

      .cls-2 {
        fill: #76b900;
      }
    </style>
  </defs>
  <g>
    <g>
      <path class="cls-2" d="M125.48,78.26l-36.72,48.39c-.43.57-.03,1.39.69,1.39h26.94c.41,0,.77-.29.85-.7l9.79-48.39c.18-.9-.98-1.43-1.54-.7Z"/>
      <path class="cls-2" d="M120.46,166.09l36.72-48.39c.43-.57.03-1.39-.69-1.39h-26.94c-.41,0-.77.29-.85.7l-9.79,48.39c-.18.9.98,1.43,1.54.7Z"/>
    </g>
    <path class="cls-2" d="M122.97,68.59c29.6,0,53.59,23.99,53.59,53.59s-23.99,53.59-53.59,53.59-53.59-23.99-53.59-53.59,23.99-53.59,53.59-53.59h0ZM122.97,60.36c-34.09,0-61.82,27.73-61.82,61.82s27.73,61.82,61.82,61.82,61.82-27.73,61.82-61.82-27.73-61.82-61.82-61.82h0Z"/>
  </g>
  <g>
    <path class="cls-1" d="M235.72,128.11v-45.63h-16.89v46.18c0,7.47,6.06,13.53,13.53,13.53h30.83v-14.08h-27.47Z"/>
    <path class="cls-1" d="M461.99,119.75c3.75-1.31,6.72-3.57,8.91-6.78,2.19-3.21,3.28-6.98,3.28-11.3,0-3.7-.81-6.99-2.43-9.89-1.62-2.9-3.87-5.18-6.74-6.83s-6.12-2.47-9.76-2.47h-32.24v60.28h16.2v-21.9h5.55l8.39,14.98c2.39,4.28,6.9,6.92,11.8,6.92h11.52l-14.48-23.01ZM456.65,104.74c-.76.74-1.8,1.11-3.11,1.11h-14.33v-8.36h14.33c1.31,0,2.35.38,3.11,1.15.77.77,1.16,1.78,1.16,3.03s-.39,2.33-1.16,3.07Z"/>
    <path class="cls-1" d="M314.53,117.02c0-14.67-8.7-23.45-23.2-23.45s-24.57,10.06-24.57,24.73,9.38,24.74,24.57,24.74c12.36,0,20.92-6.75,22.71-17.08l-15.04.05c-1.61,3.92-3.75,5.26-7.67,5.26-5.05,0-8.09-3.43-8.28-8.87h31.14c.25-1.62.34-3.33.34-5.38ZM283.53,112.5c.75-4.79,3.3-7.25,7.54-7.25s7,2.62,7.48,7.25h-15.02Z"/>
    <path class="cls-1" d="M344.81,106.28c4.09,0,6.3,1.59,7.15,5.77l.16,2.14,15.12.07v-2.27c-1.11-11.26-9.72-18.42-22.86-18.42-15.18,0-24.91,9.72-24.91,24.73s9.56,24.74,24.91,24.74c13.14,0,22.21-6.63,22.86-19.81l-14.95-.17c0,5.25-3.39,7.27-7.48,7.27-5.89,0-8.79-3.92-8.79-12.03s2.99-12.02,8.79-12.02Z"/>
    <path class="cls-1" d="M524.83,113.04c-1.85-12.32-10.38-19.47-23.61-19.47-14.92,0-23.79,9.21-23.79,24.73s8.87,24.74,23.79,24.74c13.23,0,21.77-7.22,23.61-19.51.25-1.65.37-3.4.37-5.23s-.12-3.6-.37-5.26ZM501.31,130.33c-5.02,0-7.5-3.92-7.5-12.03s2.48-12.02,7.5-12.02,7.51,3.92,7.51,12.02-2.48,12.03-7.51,12.03Z"/>
    <path class="cls-1" d="M377.47,111.32v14.56h34.12v-14.56h-34.12Z"/>
  </g>
</svg>